<?xml version="1.0" standalone="no"?>
<!DOCTYPE svg PUBLIC "-//W3C//DTD SVG 20010904//EN"
 "http://www.w3.org/TR/2001/REC-SVG-20010904/DTD/svg10.dtd">
<svg version="1.0" xmlns="http://www.w3.org/2000/svg"
 width="722.000000pt" height="178.000000pt" viewBox="0 0 722.000000 178.000000"
 preserveAspectRatio="xMidYMid meet">
<metadata>
Created by potrace 1.16, written by Peter Selinger 2001-2019
</metadata>
<g transform="translate(0.000000,178.000000) scale(0.100000,-0.100000)"
fill="#000000" stroke="none">
<path d="M160 1055 l0 -575 370 0 370 0 0 70 0 70 -290 0 -290 0 0 505 0 505
-80 0 -80 0 0 -575z"/>
<path d="M5120 1550 l0 -80 75 0 75 0 0 80 0 80 -75 0 -75 0 0 -80z"/>
<path d="M1259 1321 c-194 -63 -299 -266 -268 -516 16 -131 69 -225 162 -289
140 -95 358 -82 477 30 50 46 93 118 105 171 l7 33 -71 0 c-68 0 -72 -1 -83
-27 -39 -90 -121 -143 -218 -143 -61 0 -123 24 -157 61 -30 33 -60 104 -68
162 l-7 47 306 0 306 0 0 78 c0 135 -52 272 -123 326 -103 78 -253 106 -368
67z m243 -146 c47 -34 84 -97 94 -162 l7 -43 -227 0 -226 0 0 30 c0 71 60 156
135 192 62 29 161 22 217 -17z"/>
<path d="M2134 1329 c-22 -5 -65 -24 -95 -42 -65 -38 -109 -113 -109 -184 l0
-43 63 0 64 0 12 42 c26 84 103 126 214 114 108 -11 157 -53 157 -135 0 -71
-17 -80 -180 -102 -165 -22 -226 -38 -286 -80 -77 -53 -111 -166 -80 -271 56
-192 323 -236 512 -83 l41 33 11 -32 c22 -59 55 -81 125 -81 90 0 97 5 97 65
0 50 0 50 -32 50 -18 0 -38 4 -45 8 -8 5 -12 91 -15 292 -3 179 -8 295 -15
311 -22 51 -73 98 -131 120 -65 25 -238 35 -308 18z m306 -491 c0 -93 -16
-137 -65 -184 -125 -121 -338 -88 -338 51 0 91 52 128 209 151 60 9 125 22
144 29 19 7 38 13 43 14 4 0 7 -27 7 -61z"/>
<path d="M3090 1319 c-25 -11 -66 -43 -92 -71 l-48 -50 0 61 0 61 -70 0 -70 0
0 -420 0 -420 74 0 75 0 3 278 3 277 28 47 c36 63 97 98 174 103 l58 4 3 75 3
76 -48 0 c-26 0 -68 -10 -93 -21z"/>
<path d="M3640 1324 c-48 -17 -140 -80 -140 -95 0 -5 -4 -9 -10 -9 -5 0 -10
23 -10 50 l0 50 -70 0 -70 0 0 -420 0 -420 74 0 75 0 3 283 c3 280 3 282 28
326 35 62 85 99 152 113 97 20 172 -17 196 -100 8 -26 12 -137 12 -331 l0
-291 75 0 75 0 0 308 c0 245 -3 320 -15 367 -31 119 -109 176 -249 182 -57 2
-95 -2 -126 -13z"/>
<path d="M4467 1330 c-61 -11 -123 -47 -174 -103 -78 -85 -113 -188 -113 -335
0 -208 60 -326 199 -390 49 -23 69 -27 151 -26 108 1 148 14 210 70 44 40 44
42 30 -74 -19 -164 -95 -231 -250 -220 -83 6 -124 29 -151 85 l-21 43 -73 0
-72 0 7 -37 c17 -88 53 -133 138 -175 58 -29 77 -33 168 -36 209 -8 331 68
381 239 13 45 17 130 20 497 l5 442 -71 0 -71 0 0 -45 0 -46 -36 35 c-68 66
-171 95 -277 76z m182 -145 c39 -20 87 -75 106 -120 26 -60 31 -196 11 -275
-33 -130 -108 -195 -227 -195 -55 0 -72 4 -108 28 -64 42 -94 115 -99 238 -10
231 81 360 242 343 27 -3 61 -11 75 -19z"/>
<path d="M5772 1322 c-28 -11 -75 -38 -102 -61 l-50 -42 0 50 0 51 -70 0 -70
0 0 -420 0 -420 75 0 75 0 0 268 c0 157 4 283 11 305 15 56 93 132 149 147 57
15 125 8 159 -17 14 -11 35 -37 46 -59 18 -36 20 -62 23 -341 l3 -303 75 0 74
0 0 292 c0 169 -5 318 -11 355 -15 85 -58 149 -122 182 -67 34 -189 40 -265
13z"/>
<path d="M6608 1326 c-152 -44 -252 -171 -278 -353 -30 -211 43 -397 186 -475
138 -74 335 -56 446 42 44 38 99 129 112 183 l6 27 -73 0 -73 0 -12 -33 c-28
-78 -119 -137 -212 -137 -124 0 -208 82 -226 221 l-7 49 307 0 306 0 0 60 c0
86 -27 207 -57 260 -36 61 -77 97 -153 133 -52 25 -79 31 -145 34 -46 1 -100
-3 -127 -11z m193 -130 c69 -29 117 -97 134 -188 l7 -38 -232 0 -232 0 7 33
c13 65 55 136 98 166 23 15 49 31 57 34 30 11 128 7 161 -7z"/>
<path d="M5120 900 l0 -420 75 0 75 0 0 420 0 420 -75 0 -75 0 0 -420z"/>
</g>
</svg>
